<svg version="1.1" xmlns="http://www.w3.org/2000/svg" viewBox="0 0 1704.980108335551 2802.608695652174" width="1704.980108335551" height="2802.608695652174">
  <!-- svg-source:excalidraw -->
  
  <defs>
    <style>
      @font-face {
        font-family: "Virgil";
        src: url("https://excalidraw.com/Virgil.woff2");
      }
      @font-face {
        font-family: "Cascadia";
        src: url("https://excalidraw.com/Cascadia.woff2");
      }
    </style>
  </defs>
  <rect x="0" y="0" width="1704.980108335551" height="2802.608695652174" fill="#ffffff"></rect><g transform="translate(570 172.608695652174) rotate(0 420 1310)"><path d="M211.30857183225453 -1.9290852416306734 M209.38522646773305 0.12096794249477608 C360.568334326379 -0.8048397918379352, 509.02744809533755 -0.0699940441962527, 629.9424321849158 0.5889340712840817 M210.33194709316493 -0.5192098354783485 C354.05748242061946 -2.490424045804578, 498.10688195047993 -2.6076152646314084, 630.5105683685753 -0.3303285022737812 M630 0 C770.5347535181791 1.0870760213583708, 838.246626989916 68.93143023364246, 838.9688933063298 209.4487898480147 M629.0688081551343 -1.5615435112267733 C771.353161214199 -1.5550294040702282, 839.9756361260079 71.53143852660432, 838.5431450082921 210.95269526550547 M839.5407359175384 210.4634754963219 C834.1977445751428 1068.0575399070979, 834.5793766409158 1925.3345945827664, 840.41202371642 2410.796815306693 M840.2804039750248 210.180278423056 C837.1057412799447 1054.3120146218687, 837.5942455824464 1899.612283764407, 839.8504945192486 2410.020938649401 M840 2410 C840.4726234246045 2548.005329085514, 769.2402868438512 2619.8862395416945, 631.647726194933 2621.3911556135863 M840.6689171362668 2411.2990847360343 C841.1871124549768 2550.9053141892887, 770.4212311579846 2621.2492270738817, 630.137187077012 2618.157394442055 M630.1766666912433 2619.6960770065134 C504.1455606389078 2619.6902723958497, 375.8592920588967 2619.453478238935, 210.3796651833742 2619.119762656009 M630.1356559548481 2619.5947564709027 C523.0519962837495 2619.422772492011, 415.36098233483233 2618.7879571665026, 209.69325402161738 2620.061825491874 M210 2620 C71.35306687839329 2621.8912869226187, -1.6889582704752684 2550.295325888321, 0.5799236465245485 2411.494341386482 M209.67595513351262 2618.0302497874945 C68.32147835334763 2620.4815944434145, -1.3546219454146922 2550.0440728873946, -2.0843840287066993 2410.498550298903 M-0.21684913113713267 2409.6755908794703 C8.246525044739247 1534.8038011059166, 8.302812261879446 660.5586539410054, 0.4252791218459606 210.64849062636495 M-0.1917533602565527 2409.873547055945 C5.705122388526798 1944.8416684973986, 5.815600873157383 1479.9166529607028, 0.19582223035395147 209.73488141559065 M0 210 C-0.519716901704669 70.74543781392276, 69.02871586568654 -0.8564474452286959, 210.30405987985432 1.2744604479521513 M-1.574628634378314 209.10118992440403 C0.07796301087364554 70.55249788174406, 68.82524966737256 -2.173306259419769, 211.7696670426987 1.5978181094862518" stroke="#000000" stroke-width="1" fill="none"></path></g><g transform="translate(750 1332.608695652174) rotate(0 234.68421052631584 455)"><path d="M116.44406748494428 -1.1815921496599913 M117.95232449052777 0.42169464487633107 C179.17386631291106 -0.08142546065188849, 242.2894140715438 1.6971757003099754, 352.51470565502973 1.258478065539472 M117.46646143638571 -0.13644919441235018 C202.79511528659083 0.9058342670351897, 290.08952274790903 1.0544438412315584, 352.2026552294802 -0.49600504852451854 M352.0263157894737 0 C428.3000263869436 1.1088118720799685, 468.8262982247888 38.303012286394576, 469.40674530253995 119.29197258806151 M351.14467304366593 -1.7769828867167234 C431.47706344021947 1.8644105507992208, 467.3301186818189 37.6202935857584, 468.51635764423077 115.98931834508029 M469.3482960755496 117.08933653725606 C468.2743123261519 337.631108079934, 468.46512479468066 557.4676847678755, 469.49004500457335 793.167678916023 M469.19713156358586 117.02717953628225 C470.195470889138 302.6959587977268, 470.65311431460265 487.4478347541176, 469.46450764076104 792.4535903311678 M469.3684210526316 792.6578947368421 C468.2091074465333 869.6588849415185, 429.8771173059614 910.8645637799054, 350.13648425954347 909.9422187376767 M470.72664086804974 791.2866047851153 C467.56068169954483 871.4996520593876, 429.54666396571787 911.7513768835925, 350.25846701477604 908.7717965706252 M353.1186424390596 911.598799087682 C261.9681420383229 910.9959930300486, 170.64551243358068 910.6571539174869, 117.88105473928445 909.5506020206691 M351.4513432604722 909.8037193462714 C264.39014994362765 907.4463569007049, 177.82267376295786 907.5333906771956, 116.55423437644322 910.7365099220683 M117.3421052631579 910 C37.61444488269065 911.281213061884, 1.4357102047652006 870.0532591332795, -1.5570696461945772 791.3490032784052 M117.80144710025114 910.8898183275014 C40.68895912169267 908.9580439283512, 0.13846544334664923 870.9513806983942, 0.48355984399095187 794.1751240240753 M0.6283490486443043 792.4948218460538 C2.0725422141553933 528.6930285697656, 2.297439765691953 264.897075594991, -0.5245217733085156 116.55158588780385 M-0.36187400557100774 792.637771818728 C-0.7665965783229393 654.4632710791977, -0.21928182717471534 515.5186932064887, -0.25204645134508613 117.20785238450688 M0 117.3421052631579 C0.8690489064902067 40.97380027648781, 39.839462132274846 1.0888677407056093, 118.7385784455232 1.156985955312848 M0.7347116004675627 118.60577143287581 C0.7696666599251327 37.493376333813856, 40.49532531796743 -0.7392956928350032, 115.53623548426029 -1.1400971666909754" stroke="#000000" stroke-width="1" fill="none"></path></g><g transform="translate(670 272.608695652174) rotate(0 90 90)"><path d="M105.99231974174096 0.7045843527192659 C117.68299591224252 1.5804385411878576, 131.1796310756624 9.104194877398694, 141.06103159295384 15.835494187941137 C150.94243211024528 22.56679349848358, 159.12510586095698 30.887946743886893, 165.28072284548966 41.092380215973925 C171.43633983002235 51.29681368806096, 176.18774593245277 64.98708011551857, 177.99473350014995 77.06209502046335 C179.80172106784713 89.13710992540813, 179.06903518472754 101.84208181447687, 176.12264825167279 113.54246964564263 C173.17626131861803 125.24285747680838, 167.72353936353716 137.74149575775039, 160.31641190182137 147.2644220074579 C152.90928444010558 156.78734825716543, 142.55556676336667 165.28495506577036, 131.67988348137814 170.68002714388774 C120.80420019938963 176.07509922200512, 107.17419012309298 179.121101973186, 95.06231220989025 179.63485447616227 C82.95043429668752 180.14860697913855, 70.43439169782356 177.78722206836335, 59.0086160021617 173.76254216174547 C47.58284030649985 169.7378622551276, 35.22342065362471 163.85010854150522, 26.507658035919114 155.4867750364551 C17.79189541821352 147.12344153140498, 11.161411151175432 134.9430990611142, 6.714040295928143 123.58254113144483 C2.266669440680854 112.22198320177547, -0.6001220181070746 99.36850858216732, -0.17656709556462147 87.32342745843894 C0.24698782697783156 75.27834633471056, 4.0184089721052985 62.34186099236843, 9.255369831182861 51.31205438907459 C14.492330690260424 40.28224778578075, 22.141535450463046 29.015186681365055, 31.245198058900755 21.144587838675875 C40.348860667338464 13.273988995986695, 52.16536422250672 7.454193395557214, 63.87734548180913 4.088461332939502 C75.58932674111153 0.7227292703217905, 92.4772449108139 0.7988890050985091, 101.51708561471523 0.950195462969603 C110.55692631861656 1.1015019208406969, 113.55362710931004 3.368403051713538, 118.11638970521713 4.9963000801660655 C122.67915230112422 6.624197108618593, 129.44650133868143 9.443534345856342, 128.89366119015776 10.717577633684769 M77.89918651697701 1.02044146661747 C89.14865989171784 -1.8757338642789207, 103.22219990349005 -0.3998300320394015, 114.94849368887392 2.7690618086146372 C126.6747874742578 5.937953649268676, 138.7792415318752 11.975319128598988, 148.25694922928025 20.0337925105417 C157.73465692668532 28.092265892484413, 166.56836898272778 40.37335436658031, 171.81473987330438 51.11990210027092 C177.06111076388098 61.86644983396153, 179.37105509644826 72.71811962412991, 179.7351745727398 84.51307891268537 C180.09929404903133 96.30803820124083, 178.0708753581941 110.17108426914803, 173.99945673105356 121.8896578316037 C169.92803810391302 133.60823139405937, 163.64278310229062 146.3026915785515, 155.3066628098966 154.82452028741943 C146.9705425175026 163.34634899628736, 135.70430775849286 168.84463490655497, 123.98273497668947 173.02063008481133 C112.26116219488608 177.1966252630677, 97.13325143163993 180.33948388217894, 84.97722611907626 179.88049135695752 C72.82120080651259 179.4214988317361, 61.830118060010626 175.52152487273443, 51.046583101307434 170.26667493348282 C40.26304814260424 165.0118249942312, 28.263875086163583 157.3083509992609, 20.276016366857107 148.3513917214478 C12.28815764755063 139.3944324436347, 6.476462889129948 128.34887694497274, 3.119430785468566 116.52491926660426 C-0.23760131819281582 104.70096158823577, -1.7715233497433331 89.64882440918933, 0.1338237448888151 77.40764565123692 C2.0391708395209633 65.16646689328451, 7.944457842218235 53.36651863946793, 14.551513353261456 43.077846718889774 C21.158568864304677 32.78917479831162, 30.065324003525234 22.427855961821862, 39.77615681114814 15.675614127768014 C49.48698961877105 8.923372293714166, 66.70924548208453 4.859595995445801, 72.8165101989989 2.564395714566686 C78.92377491591327 0.26919543368757104, 75.83094216547443 1.6573935831237325, 76.41974511263433 1.9044124424933244 C77.00854805979424 2.151431301862916, 75.87097276427838 2.489758015921244, 76.34932788195835 4.046508870784237" stroke="#000000" stroke-width="1" fill="none"></path></g><g><g transform="translate(1289.3068755217641 353.58968473097883) rotate(0 -59.1207013519853 0.38534992173315175)"><path d="M-0.7445170182734728 -0.9809890788048505 C-20.524534787610172 -1.0187327306717635, -99.00000372119247 0.020374317839741682, -118.92382298894226 0.14050076790153976 M1.0654728177934887 1.1183877094835042 C-18.75707556925714 1.2651963885873556, -98.92862454377115 1.7846476229280233, -119.30687552176416 1.7516889222711325" stroke="#000000" stroke-width="1" fill="none"></path></g></g><g><g transform="translate(1310.356318869572 394.52170953766085) rotate(0 -60.233042669137944 -0.2759334226883965)"><path d="M0.583358009532094 0.07447812370955953 C-19.384351996704936 -0.055232943966984666, -99.98354260139166 -0.7849117774516344, -120.06649041585624 -0.7588637966662646 M-0.5695177648030221 -0.9320248066820205 C-20.678296813126657 -0.925466436687857, -101.03852133607492 -0.05341367239132505, -121.04944334780798 0.38015796130523105" stroke="#000000" stroke-width="1" fill="none"></path></g></g><g transform="translate(750 652.608695652174) rotate(0 179.5 41)"><text x="0" y="66" font-family="Cascadia, Segoe UI Emoji" font-size="67.99999999999999px" fill="#000000" text-anchor="start" style="white-space: pre;" direction="ltr">Flash vue</text></g><g transform="translate(750 792.608695652174) rotate(0 199 84)"><text x="0" y="19" font-family="Cascadia, Segoe UI Emoji" font-size="20px" fill="#000000" text-anchor="start" style="white-space: pre;" direction="ltr">Lowes bf firm hurt j if g</text><text x="0" y="43" font-family="Cascadia, Segoe UI Emoji" font-size="20px" fill="#000000" text-anchor="start" style="white-space: pre;" direction="ltr">Good to g good g hated haha fresh</text><text x="0" y="67" font-family="Cascadia, Segoe UI Emoji" font-size="20px" fill="#000000" text-anchor="start" style="white-space: pre;" direction="ltr">Freddy ha GH hg just bc for d of f</text><text x="0" y="91" font-family="Cascadia, Segoe UI Emoji" font-size="20px" fill="#000000" text-anchor="start" style="white-space: pre;" direction="ltr">Fish fry fish it if yr we egg j</text><text x="0" y="115" font-family="Cascadia, Segoe UI Emoji" font-size="20px" fill="#000000" text-anchor="start" style="white-space: pre;" direction="ltr">Dish me job f USB be for if x</text><text x="0" y="139" font-family="Cascadia, Segoe UI Emoji" font-size="20px" fill="#000000" text-anchor="start" style="white-space: pre;" direction="ltr">Fish it greek it to be the h is</text><text x="0" y="163" font-family="Cascadia, Segoe UI Emoji" font-size="20px" fill="#000000" text-anchor="start" style="white-space: pre;" direction="ltr">Greg j</text></g><g transform="translate(750 1012.608695652174) rotate(0 30 10)"><path d="M5.076509488746524 1.1895312834531069 M5.695982770994306 -0.215661333873868 C21.473211486823857 -0.5133223733864725, 33.91262777894735 -0.732641180511564, 55.85157121904194 -1.8056856263428926 M4.108950859867036 0.16695664171129465 C23.536879051476717 -0.3441324788145721, 44.68124458286911 -0.40795263228937984, 55.2729621892795 0.15783871058374643 M55 0 C60.04976812315484 -1.9762605261057615, 59.92814434878528 1.1225268809745708, 58.06479717604816 6.824485020712018 M56.82840485684574 -1.0691551994532347 C58.436090560847276 1.3941293253563343, 58.01666427562013 3.8679151260914897, 58.63077227184549 3.8083342536352576 M59.577054359950125 4.991009152494371 C60.069030413310976 7.624268574640155, 60.47229323713109 10.986813236959279, 60.13715411070734 15.566077954135835 M60.245293769519776 4.575548489112407 C60.27259712610394 7.41324703162536, 60.10415095780045 9.4971809447743, 59.99180157808587 15.253975783009082 M60 15 C61.45655675046146 19.784234858428437, 58.800851199155055 19.554901080206037, 53.66008652560413 21.03667743690312 M58.63004262559116 13.787579910829663 C61.91352348932996 18.025686780021836, 56.72655843406295 19.968837319221347, 54.16035700747743 20.193107943143694 M54.34826524741948 20.11175818555057 C38.79625268187374 19.65187774738297, 25.187433551996943 19.527155803050846, 4.500702755525708 18.422711981460452 M55.80468500312418 20.949785807169974 C42.28555520810187 20.890649569686502, 30.492750448174775 19.87505100434646, 4.184688306413591 20.089238890446723 M5 20 C3.403315775717298 21.789142983034253, -0.2790659535676241 19.540688670550782, -0.6990384925156832 15.712927775457501 M5.2494828235358 18.785374896600842 C2.8774985473292567 20.465711463894696, 0.15807366082444796 17.307014990256476, 0.9563788921572267 14.765503321494908 M-0.4742992138490081 14.102648294530809 C0.027477260027080785 11.967564910650253, -0.49906567176803945 7.9583732122555375, -0.1997104799374938 4.775422937236726 M0.26402494637295604 14.748186368960887 C-0.23223405219614507 12.77529003797099, 0.45347436629235743 10.165755542460829, -0.08520660968497396 4.991743896622211 M0 5 C-1.0677998531609774 1.8999547331283488, 2.714922838533918 0.37367220409214497, 6.878535402938724 -1.217564744874835 M1.5309637319296598 6.150303976610303 C1.8046189249493176 2.226792895204077, 0.7198443960087995 1.542173074092716, 3.071743199322373 2.115974490251392" stroke="#000000" stroke-width="1" fill="none"></path></g><g transform="translate(850 1012.608695652174) rotate(0 30 10)"><path d="M3.487387789413333 0.6959827709943056 M4.589709954336286 -1.1107942331582308 C20.312417884357274 -1.5828167698346078, 35.67082413285971 0.51582325482741, 56.201761262491345 -1.7820982802659273 M5.935590571723878 -0.10751231666654348 C21.10774539783597 0.1796847921796143, 35.701965005137026 0.9340885919518769, 55.85821739491075 -0.9881302630528808 M55 0 C60.16173819017907 -1.0691551994532347, 58.80936719290912 0.6304355828712382, 59.92814434878528 4.455860214307904 M55.089354110881686 1.2122863698750734 C59.397718228989596 1.523298223223537, 60.1285332233645 0.6938916945519547, 58.01666427562013 7.201248459424823 M60.40606287959963 4.061261153779924 C60.13743411628529 8.557087106630206, 59.149204096477476 10.696810116060078, 60.71551222447306 15.490587539039552 M60.132671776693314 5.199332762975246 C60.05202516708523 7.405072761233896, 59.725245220400396 9.561363315675408, 60.364139187615365 15.362725381273776 M60 15 C58.63004262559116 17.120913244162995, 57.603208992009364 20.167919950559735, 55.46751786582172 19.554901080206037 M61.66393346898258 14.732481257990003 C59.94623613366857 17.497741648958375, 56.28713686972236 19.2505050345324, 53.393225100729616 19.968837319221347 M54.95367761142552 19.971981121227145 C39.22130729164928 18.44688774785027, 23.171266149729487 18.609362916555256, 6.5689256358891726 21.609370006248355 M54.14303583558649 19.482819595374167 C34.43575927056372 20.338447970803827, 15.152622682042413 20.605672968085855, 5.868324554525316 20.894571491517127 M5 20 C1.9161494902024665 18.785374896600842, 0.8316338192671537 18.129423178111512, -0.2790659535676241 16.20735533721745 M6.052897287532687 20.404966490343213 C2.2539280038016534 17.89200484296307, 1.5657746703363955 17.242445141480612, 0.15807366082444796 13.973681656923144 M-0.5907176351174712 14.46903524454683 C-0.1932930096052587 12.672774642705917, -0.5529791756533087 10.159205042757094, -0.141730478964746 5.528049892745912 M0.3899245294742286 15.046962250489742 C-0.02604983188211918 12.495371158700436, 0.5287906285375357 9.702863337937742, -0.26694996329024434 5.058322016615421 M0 5 C1.5309637319296598 2.8169706432769694, -0.010078377400835503 1.8399778176099062, 6.048256171867251 0.37367220409214497 M1.5692338477820158 5.487066285684705 C0.43645952949300426 2.0046148234667878, 3.162143565310786 0.3653744502924381, 4.053177729342133 1.542173074092716" stroke="#000000" stroke-width="1" fill="none"></path></g><g transform="translate(950 1012.608695652174) rotate(0 30 10)"><path d="M6.341020064428449 0.3795300256460905 M5.513121796771884 0.9022519756108522 C21.33978461753577 1.4128071046434343, 36.209368504583836 -1.1544179343618453, 56.22017086856067 -1.1320037078112364 M4.8648323798552155 -0.6761920088902116 C22.158089470118288 -0.3770920601673424, 39.56668107118458 -0.3923892048187554, 55.91311038378626 0.7513357466086745 M55 0 C57.59274432746073 -0.9719024766236544, 61.29555089958012 3.204140298689405, 59.45564909465611 4.6374481450766325 M54.389691369608045 -0.20789765007793903 C56.62829142551249 -0.8779324202798306, 61.12414067229256 3.461058900846789, 60.65841305097565 5.8563836456276475 M59.752236044965684 5.186126538552344 C60.46525128604844 7.782668041065335, 59.60903083207086 9.777106310240924, 60.676525122486055 15.544187524355948 M59.63488217117265 5.397284674923867 C60.37111571934074 8.587208131793886, 59.74057759847492 12.35756400367245, 60.12057188572362 15.125495764892548 M60 15 C60.624835984781384 19.79115471554299, 56.829273975764714 21.550750805065036, 54.224268512800336 18.66538138501346 M60.29211129434407 15.504289282485843 C60.363004906382415 19.54316931872939, 56.72618438641852 20.313183474633842, 53.33014810523018 20.37918756613508 M54.86733574979007 20.163978116586804 C34.867004782892764 18.30471274862066, 16.780932772904634 19.34882346400991, 6.0905972849577665 20.22154219634831 M55.06639323476702 20.86783543881029 C44.12606698833406 20.528676042798907, 35.37126568239182 19.632698813918978, 5.971250065602362 19.211916691623628 M5 20 C1.034803923840324 19.35354102961719, -1.220959348604083 17.404616865639884, 0.8612427283078432 16.04773814789951 M6.927387969568372 20.944679034873843 C2.797168689376364 20.663138219807298, -1.0549916819669305 19.429853107624997, 0.6919462545774877 15.337654709909112 M0.2542255287989974 14.720500656403601 C0.19480654587969184 13.63002410531044, -0.27500414857640865 11.308416000567377, -0.603662365116179 5.613973476924002 M0.3752843332476914 15.350050199311227 C0.30970349051058293 13.121329989749938, 0.3911423746496439 11.144001667853445, 0.3738581878133118 4.5085839363746345 M0 5 C1.8091390300542116 2.6167864135156074, 0.8969668118904033 1.8183100949972868, 4.420770959928632 0.03500671498477459 M-0.3534043859690428 5.816884888336062 C-1.2628777072764932 0.4968587230580548, 3.4674207353654007 -2.0003498434089124, 4.828011600580067 0.9479716003872452" stroke="#000000" stroke-width="1" fill="none"></path></g><g><g transform="translate(750.6449932236225 1114.9341381035617) rotate(0 50.19309234824033 -0.796669965125659)"><path d="M-0.6449932236224413 0.732102521136403 C15.651750568362575 0.6692148053273473, 81.88351899640014 -0.366877891309601, 98.67580455169082 -0.5333090794086957 M1.2172466046363115 0.07085239939391608 C17.828196505668263 -0.3289455117657865, 84.61093213589241 -1.9572214597836557, 101.03117792010308 -2.325442451387694" stroke="#000000" stroke-width="1" fill="none"></path></g><g transform="translate(750.6449932236225 1114.9341381035617) rotate(0 50.19309234824033 -0.796669965125659)"><path d="M74.3099932383624 7.464121952187067 C84.62020104764171 5.911149283622699, 95.53207046320966 0.2932766862375278, 99.67879390232265 -3.2543647301942613 M74.00293275358798 9.347461406606978 C81.26392078488861 5.147673662638617, 89.53798148385334 1.5705253607282428, 101.67895336989314 -1.556705635376325" stroke="#000000" stroke-width="1" fill="none"></path></g><g transform="translate(750.6449932236225 1114.9341381035617) rotate(0 50.19309234824033 -0.796669965125659)"><path d="M73.82677997579724 -13.051396742906181 C84.29133795208936 -6.916416439618256, 95.38422476577546 -4.848933309150457, 99.67879390232265 -3.2543647301942613 M73.51971949102283 -11.16805728848627 C80.78631322620672 -9.220606778486157, 89.2051610413199 -6.650608430521915, 101.67895336989314 -1.556705635376325" stroke="#000000" stroke-width="1" fill="none"></path></g></g><g><g transform="translate(850 1152.608695652174) rotate(202.70359906179195 20.479766066293237 11.05018031806685)"><path d="M0.9015846602618696 1.1931355006992816 C7.554848268876474 4.347453602900107, 34.42130958562096 16.768340842674174, 41.04375425502658 19.861644387990236 M-0.08422212244011451 0.7739276932273063 C6.4039835918849946 4.038630547284459, 33.92887824911934 17.965296573300535, 40.64367977528833 21.326432942906393" stroke="#000000" stroke-width="1" fill="none"></path></g><g transform="translate(850 1152.608695652174) rotate(202.70359906179195 20.479766066293237 11.05018031806685)"><path d="M20.425741448645148 20.44467466396993 C26.969307598760544 20.630638698520585, 35.53043882972918 21.562809488842255, 42.56792684271 22.656624454567208 M18.067279500533495 19.127977366352138 C26.43023414095363 20.734497877060598, 34.532809334205226 21.046589937076824, 40.26190857774578 20.848956366563215" stroke="#000000" stroke-width="1" fill="none"></path></g><g transform="translate(850 1152.608695652174) rotate(202.70359906179195 20.479766066293237 11.05018031806685)"><path d="M27.30604540392884 6.783892315805186 C31.247490289650692 12.399540630337391, 37.09997623326967 18.709702563107086, 42.56792684271 22.656624454567208 M24.94758345581719 5.467195018187393 C30.658706410880615 12.273665916583088, 36.121150943075094 17.827713937530476, 40.26190857774578 20.848956366563215" stroke="#000000" stroke-width="1" fill="none"></path></g></g><g transform="translate(905.8046457450542 1162.762358486325) rotate(0 132 12.5)"><text x="0" y="18" font-family="Virgil, Segoe UI Emoji" font-size="20px" fill="#000000" text-anchor="start" style="white-space: pre;" direction="ltr">Hover: show emoji eye balls</text></g><g><g transform="translate(1152.2931756515509 1390.012069525193) rotate(0 -28.86229429933735 0.4708616071002325)"><path d="M-1.0910052426159382 -0.7140663139522075 C-10.787632707663272 -0.8500105611979961, -48.02501882765638 -0.04172453805804249, -57.3687249975377 0.08617017343640332 M0.5370782756712287 1.525444925883785 C-9.379352528917064 1.5224976970348507, -48.54703573902334 1.6899468676839025, -58.261666874345885 1.6688347657117992" stroke="#000000" stroke-width="1" fill="none"></path></g></g><g><g transform="translate(1152.285064326807 1428.3603894130722) rotate(0 -28.771803030097175 -0.3622634075861697)"><path d="M0.7297222383320332 -0.3778334744274616 C-9.027267613418791 -0.26654628589749335, -48.63825846020328 -0.5320272095501423, -58.27332829852637 -0.41977185085415836 M-0.34631231588311495 -1.6217999938409777 C-9.744795760194231 -1.2477192831318826, -46.43222617865736 0.3322352936584504, -55.98118690835361 0.8972731786686929" stroke="#000000" stroke-width="1" fill="none"></path></g></g><g><g transform="translate(1152.3033390030423 1409.2036062376465) rotate(0 -29.414294939739875 -0.4612737300379308)"><path d="M0.2956986777484416 0.8708735950291155 C-9.29006910712311 0.8425511129200457, -48.40089730475294 0.32830753400921825, -57.93437856008347 0.22305252626538286 M-1.0081982457730918 0.28247828708030287 C-10.755568038093319 -0.16634574993513523, -49.73025041659559 -2.015754222413525, -59.12428855722819 -1.7824196462240072" stroke="#000000" stroke-width="1" fill="none"></path></g></g><g transform="translate(826.6315789473686 1409.2402745995423) rotate(0 51.684210526315724 13.893604980192379)"><text x="0" y="17.787209960384793" font-family="Virgil, Segoe UI Emoji" font-size="22.22976796830783px" fill="#000000" text-anchor="start" style="white-space: pre;" direction="ltr">Flash vue</text></g><g transform="translate(826.6315789473684 1543.3455377574371) rotate(0 162.84210526315792 57.47368421052636)"><path d="M30.285371271991416 1.0514071397483349 M29.663874872078157 -0.008211936365393508 C115.44425318868439 0.2901814850441662, 202.90549305438978 -0.49912909539687955, 296.68169260895456 1.3735667594799519 M28.672745009394987 0.769899831796018 C127.58475204471345 -1.6476417684433604, 226.79392539583816 -1.1316170835313502, 297.5192757347044 0.22274507479402447 M296.94736842105266 0 C317.2370060115661 -1.6407104320824146, 326.9509434760794 8.045165404089186, 327.02033782613125 28.937731495225115 M295.75816815758225 0.11408201977610588 C318.264535617603 -1.1590974276885389, 324.6922785728484 9.431621542171035, 324.36536363058383 30.678338226587755 M325.3937106416806 30.01691087903945 C323.5512007290949 47.59646754076607, 325.9323906714548 63.34584308066651, 323.9734376953229 85.4952014557233 M325.19930636559275 27.928099840977474 C325.0803454503104 41.320176851965094, 325.56368446197956 55.66344671878768, 324.883393224819 85.95856576069798 M325.68421052631584 86.21052631578948 C325.9145869077429 105.8667289177446, 317.9242200284805 113.8144684624123, 296.1714587774324 113.01296122783893 M327.470306998609 86.87334037787821 C324.8375435619861 106.90738588986231, 318.0769211230408 114.8490039838674, 295.44959816878765 114.27952133549475 M297.9165299559608 113.64248313063361 C226.81556553539798 113.25811807038527, 158.9115869136979 113.85167338282848, 28.916717430040652 114.02517808177649 M296.62971268038376 115.43321935033742 C198.4521269569285 112.9171187046461, 101.94827465424966 113.1877366135801, 29.11714085296055 114.2665578060264 M28.736842105263158 114.94736842105263 C11.27839489967415 112.97914953941577, 0.10636450722813606 103.68954946198745, -0.054130058735609055 85.2984610892048 M27.92629012289016 116.79262729400867 C7.794238776684198 114.07893669141555, -0.26802131179720146 107.51167928991153, 0.5647149300202727 85.96491332437452 M-0.3796507902443409 88.08723043121006 C-1.1714198627322912 71.64364941394643, 1.2554701528698207 58.26197711860664, 0.6340514831244946 27.035984007739707 M-0.9701481964439154 86.1869357715508 C-0.25674377246122604 63.53140965258997, -0.15062491460066085 41.353687717589104, -0.4411592986434698 29.536337286331936 M0 28.736842105263158 C1.3075109906494617 8.441977008589003, 10.882707915611956 1.8253734521567822, 29.600612847232505 -0.9225143976509571 M0.6019090600311756 27.489078870141192 C-1.3522645318880677 8.417728599504027, 7.387752974749002 1.2554230565205216, 30.1408511470121 1.12045426312834" stroke="#000000" stroke-width="1" fill="none"></path></g><g transform="translate(830 1692.608695652174) rotate(0 162.84210526315792 57.47368421052636)"><path d="M28.156105509125872 -0.7362321428954601 M28.08747860922722 -1.1317021612499625 C126.38889440403035 1.0593526396234227, 224.2510177325918 -0.653768732915854, 296.2739361503599 0.7399045886923424 M29.24581511637842 0.5096317974298854 C107.12376357345431 0.9190500406340545, 187.4243023475654 0.566350676766906, 296.83182856131265 0.6506789523732073 M296.94736842105266 0 C314.37353905584473 -0.054130058735609055, 324.77214529973116 11.27839489967415, 326.0786702917203 29.704177944087668 M294.9791495394158 0.10636450722813606 C318.22731086179425 0.5647149300202727, 325.43859753490085 7.794238776684198, 323.7535081970751 27.80470732553421 M324.4827946485266 27.19100533994405 C326.5307371457118 43.42921088306528, 327.4939399798411 57.26523670816893, 324.9069490493521 87.02177179820444 M326.6235977490678 27.897471565851255 C326.6111089479453 43.947494868326345, 325.8428263556487 60.359283078638356, 325.64620358545926 85.57748422801103 M325.68421052631584 86.21052631578948 C327.2832008884534 106.23219179460092, 315.18274876024384 116.25487941170209, 297.79813011402365 114.06504982376569 M324.5472401664838 87.51428686298038 C324.2492828059256 106.77243009438051, 317.22571742102315 113.59510388916456, 299.04654789103296 115.63956384008848 M297.0337644666206 114.93807914707918 C231.37557599446473 115.65214221850052, 162.24469477817857 116.76264149208293, 27.315570867429845 116.4717469271629 M296.64884525746015 114.31575039352833 C216.77195885686828 116.86624940860301, 136.0951788810882 116.81030693932766, 29.469829399573342 114.34578891004311 M28.736842105263158 114.94736842105263 C8.470489963300917 116.59996586704725, 0.5313156060874462 104.50404249974771, 0.18833498284220695 85.3284830919614 M28.319715848290606 115.84581809902662 C8.615325626328978 115.1622558945986, -0.1667644625529645 105.48104915847316, 1.2240663046017288 86.115115745846 M0.6265732236206532 87.5266037083378 C0.4264683984180815 70.20523218583119, 0.8183363936802275 54.14427860155701, -1.2101518921554089 29.494855871522113 M-0.49880395270884037 86.44492510735597 C0.4075531353997557 73.69091949307997, -0.1796762952757509 61.80722370851589, 0.21539886854588985 28.25562568391232 M0 28.736842105263158 C0.23675290867686272 9.878602109261248, 10.212942465551588 -0.42266641184687614, 27.141092052781268 -0.4507833532989025 M1.4696337394416332 29.427078692340537 C-0.5283410018309951 8.430447984457407, 9.565184059337172 -1.9686927879229186, 26.908681139261706 -0.7579898560419678" stroke="#000000" stroke-width="1" fill="none"></path></g><g transform="translate(826.6315789473684 1849.8718535469109) rotate(0 162.84210526315792 57.47368421052636)"><path d="M29.677860489213153 -0.10158834978938103 M29.75610570012293 -1.4277663766351436 C111.63257864064606 -0.3934173333479899, 194.45822792963244 -1.596198911397617, 298.24872632579905 0.31015609838795277 M28.378272465261002 0.668121392771249 C121.39869646793859 0.09889328386724226, 214.9480911799288 -0.26158358336238124, 297.67281413535125 0.19305410761069877 M296.94736842105266 0 C315.3501051321234 -0.2330620102584362, 327.5479133413419 8.377531490631792, 325.47063401204196 27.184921590709372 M295.40153165573355 0.9135012812912464 C314.24727194472956 -0.8938506985083221, 326.617142831093 9.154231268883143, 325.24761211753486 30.895051837996824 M324.00546944749203 30.226226201378985 C323.2551412275081 47.75383001565933, 323.7171157291179 66.78916622129711, 324.41812635075894 87.06128800876047 M325.22295332749036 29.39059760058789 C325.57522468204564 44.0953226203393, 327.05639658804006 58.45099711824013, 325.06032890875485 86.82096502959337 M325.68421052631584 86.21052631578948 C324.67445507508364 103.46303462335153, 317.1969353809561 115.05724781418317, 297.92167647594687 113.77148621941083 M325.6723963306531 87.92748747981693 C326.6556078720152 103.28969530691637, 318.3347917394321 114.92152780836545, 296.2945695055845 113.69091985767805 M295.68413236600406 114.9201934013621 C225.00685938989005 113.08960701023398, 153.20364208106125 115.61267246142694, 27.53368308324412 115.09545258220506 M297.15625002299214 114.60754633651405 C228.14888522956332 117.04315636183615, 160.09684110223685 116.65732237411815, 28.407417247508512 115.02083010452652 M28.736842105263158 114.94736842105263 C9.119205697782728 114.7571850385713, -0.342055756598711 105.99499427625223, -0.14501257613301277 86.30846379912998 M30.05291949781148 115.3191841211366 C9.320954128697906 113.55569374507391, 0.8717158311977982 103.163308801551, -0.09699243362992993 87.08876256543752 M0.46879758313298225 87.53866172797586 C-1.6598339781282765 66.55695189653258, -1.9635302528856617 47.026822112696735, -0.9624328427016735 27.141092052781268 M0.3169975485652685 85.99919310986604 C0.6667815601747287 70.60894835091344, -0.8628879034597623 53.98757299198523, -0.22971347905695438 28.237494547018095 M0 28.736842105263158 C0.5482036285102367 7.916299186058733, 7.888536556966994 -1.820279698818922, 28.72487401040761 -1.711906772106886 M1.2786583118140697 26.85221168222396 C1.3864053899422286 7.353525269747172, 10.028822281554731 -0.6880681240931152, 27.592419001371844 -1.0476479375734924" stroke="#000000" stroke-width="1" fill="none"></path></g><g transform="translate(830 1992.608695652174) rotate(0 162.84210526315792 57.47368421052636)"><path d="M29.809250552305265 -1.7718528304249048 M30.112151155936047 0.29156700998889273 C94.14814276015912 0.07615556204065177, 158.9427888752702 -0.054802471868514724, 296.1656515048388 0.9258392528324767 M29.455244084422905 -0.14182465352137497 C91.3478179970289 -0.4304315741036686, 155.4477788885958 -0.43624246371730147, 296.5385847048126 0.10154849035424085 M296.94736842105266 0 C314.98635303336937 1.089379033073783, 327.0995160308912 7.790958726190421, 326.1250884500578 30.355099052288814 M296.94761930631574 0.11048253439366817 C317.6986609796602 -1.6937455627135931, 327.29215277845634 10.759400442120079, 326.95199090058577 27.363288489175275 M324.5300394376054 27.74421896422772 C327.0279772406758 49.78416235603785, 326.51820905267607 71.63020659318488, 326.0469384868875 87.45191106974687 M325.7126412908792 29.118278344259842 C325.8246487042073 43.67128615609713, 326.1683308443192 57.58538844272691, 326.07166012332436 86.79002351436372 M325.68421052631584 86.21052631578948 C324.73287278090265 107.3441122128187, 316.6932565506156 113.97642844768339, 298.76591317581114 113.92122536750608 M325.4407560196951 86.41803722485508 C323.8127810310818 104.39525661017059, 315.6844611237365 116.01237756770202, 297.8203236527006 112.76935529869148 M295.8104533405699 114.16688828930332 C223.6912623293013 114.71491687363336, 147.43739546038142 114.92678686877322, 29.86012104512205 114.82836529709006 M296.8241926276315 114.98325778848537 C239.91067430866238 115.3769273606723, 183.60769825206026 116.2949956874899, 28.10025550674938 115.69778326775663 M28.736842105263158 114.94736842105263 C10.333916438155267 114.05933356138044, 1.6692887637764215 103.60633730427607, -1.720864525064826 86.35903691157307 M27.1922252365437 114.74649846406751 C11.145682423253003 114.2152002142007, -0.6915129494853318 107.54683644618153, -0.22274767281487584 84.15761186891775 M-0.5651405844837427 86.30937270104494 C-0.7417149761025059 71.80756483654443, -0.8165237524811375 59.74540273925584, -0.5949258003383875 27.07353397096066 M-0.019763763062655926 86.19391951832529 C0.6226171011399282 73.99373032041875, 0.7122594768475545 60.32419126136719, -0.4345829738304019 28.982112337933167 M0 28.736842105263158 C0.2592876646667719 9.653808498166892, 11.200541329913232 -0.03788481093943119, 27.615644533285185 -1.3279969487339258 M-0.7377088572829962 26.792592197754665 C-1.809564582724124 9.486974692222121, 8.965894569892827 -0.8716377559117972, 30.01646396145715 -0.1733796599321069" stroke="#000000" stroke-width="1" fill="none"></path></g><g transform="translate(1270 1712.608695652174) rotate(0 50 60)"><path d="M25.394459765404463 0.9673358388245106 M26.6994475312531 -1.968218881636858 C35.77705425210297 -1.450855283997953, 45.53082750737667 2.0732751796022058, 75.4910564608872 -0.2135765142738819 M25.931851407513022 -0.6007079388946295 C35.34728033095598 0.5150161432102323, 47.0505720321089 0.996617560274899, 74.19217773340642 -0.38863073848187923 M75 0 C92.30071814979117 -1.7008580975234509, 101.87877444550395 6.654592254509527, 100.81124548241496 24.63068165257573 M76.48938409611583 -1.9402963928878307 C91.57925070269654 -1.4559968018904326, 100.97837594691664 7.318666946453352, 99.94574174825102 23.29992982503027 M101.30751099064946 23.86302964016795 C101.60608030688017 53.42183971963823, 100.90422881972044 76.94516929984093, 101.22087742760777 95.97430805489421 M100.54583611153066 25.05493969656527 C99.64067849423736 42.74289287626743, 99.3627599766478 58.22254260443151, 100.4223466720432 94.09620619751513 M100 95 C99.34589998051524 113.60462611789505, 90.90733691180746 118.39340319111943, 76.93872050568461 119.97752990201116 M99.96543852612376 94.68309452012181 C102.14410806242377 109.90694792425882, 91.8832518969352 118.98565029259771, 73.45391792003065 119.47191779967397 M74.13562144711614 119.58287374302745 C63.66959319077432 121.19723438378423, 50.459321312606335 119.29489695187658, 25.18685867264867 119.85498742386699 M74.82897212170064 120.31328661181033 C60.41319498792291 120.13836200442165, 44.46814195998013 120.33429600205272, 24.887829026207328 119.3949240539223 M25 120 C9.225966454794008 120.29340602830052, -0.9976079054176807 112.13546424979965, 0.758013766258955 93.0825110860169 M26.328135412186384 118.42448164895177 C8.82875073098888 118.89320223089308, -1.835112560354173 111.14826581037293, 0.17672803346067667 92.83890318032354 M-0.42266641184687614 96.46963373944163 C0.5853574277833105 71.58165963180363, -0.764000773243606 50.883302681148045, -0.9986951164901257 24.988031905144453 M-0.8452054057270288 94.08986015059054 C0.44745788592845204 79.0493584908545, -0.6894465325400233 64.52784830145538, 0.6027849521487951 24.032425174489617 M0 25 C-1.5099287815392017 6.561119654526312, 9.806843639661867 -0.18400321528315544, 25.391195576637983 -0.5983201079070568 M1.9807950668036938 23.958669681102037 C-0.9040445988997816 9.396499841970702, 6.243871767756838 -0.7992319429293275, 27.235802947916092 -0.7559011423960327" stroke="#000000" stroke-width="1" fill="none"></path></g><g transform="translate(610 1712.608695652174) rotate(0 50 60)"><path d="M25.486573001369834 -0.6346508767455816 M24.704930970445275 0.7228743638843298 C43.787240595556796 -1.347283675801009, 59.03356122225523 1.3613681648857892, 76.52891994453967 -1.505357125774026 M25.978486667387187 0.5299214469268918 C37.10361901298165 -0.26901414757594466, 49.4382345052436 0.20582968229427934, 74.09383736085147 0.6232456611469388 M75 0 C89.73735284867386 -1.907308330759406, 100.31956591270864 10.09950569209953, 101.38261844776571 25.375092098489404 M73.9059300031513 0.14718211628496647 C91.2270476467597 -1.0497099292464553, 98.45200534434989 7.483310446919251, 100.72212547035888 23.918579693417996 M100.53143889643252 26.086969694122672 C100.67529868548736 46.621694209985435, 97.75046699708328 68.73071949183941, 100.33671678043902 96.65570857189596 M99.44452900718898 25.859706019051373 C101.13103118790313 40.83540803939104, 99.62539941323921 56.963672201149166, 99.18511048983783 95.46845496166497 M100 95 C100.9737143125385 109.83024721282224, 89.86321014227967 121.35011131502688, 76.57890905998647 119.51923460699618 M99.2232876624912 94.31875611282885 C100.15755855115131 113.37548929133142, 91.04358185899135 117.87324870405719, 74.62777071567253 119.72021622834727 M76.09980625845492 120.74790187738836 C66.7797983167693 119.23814719496295, 54.9448462985456 119.03141665039584, 26.23817969299853 120.17196073196828 M75.21829153131694 119.15050819981843 C58.39008133299649 120.03417763812467, 41.09715994540601 118.9906994770281, 24.945309857837856 120.05214769113809 M25 120 C9.167557160680492 120.8183698747307, -0.46777687408030033 111.60917793648939, -1.55760214664042 95.98677952028811 M25.96150561235845 120.83741415478289 C9.925257031836857 120.74885046361014, 0.9607289251871407 109.81261437513555, -1.3585346463136374 94.77408779440448 M0.669310400262475 95.28233106993139 C0.08610039958730331 72.95994714740664, 0.4615387917496263 48.7931628189981, -1.898038974031806 24.760684510692954 M-0.5447081821039319 95.39134166110307 C-0.000943243410438166 74.35260850377381, -1.1465171872638165 53.345709948800504, 0.8502655429765582 24.16802502144128 M0 25 C0.19762488268315792 7.884045332049329, 8.752223353212077 0.24014956690371037, 24.47161998413503 -1.4317458178848028 M0.2597440090030432 23.103058585897088 C-1.043676898162812 8.205782116235543, 6.108532805958141 -1.7462569278664886, 25.8521498140879 0.9236758369021119" stroke="#000000" stroke-width="1" fill="none"></path></g><g transform="translate(1374.980108335551 2068.011255447319) rotate(0 159.99999999999994 16)"><text x="0" y="23" font-family="Virgil, Segoe UI Emoji" font-size="20px" fill="#000000" text-anchor="start" style="white-space: pre;" direction="ltr">Animated mp4 of window scrolling</text></g><g><g transform="translate(1330 2072.608695652174) rotate(0 -40.22614412866534 -39.80323480404911)"><path d="M0.21763677634298806 0.7448308523744345 C-13.285209818308553 -12.76313957211872, -67.42956432464223 -66.8995148046563, -80.66992503367365 -80.3513004604727 M-1.1272426454164088 0.090263104531914 C-14.267104991072168 -13.305024044619252, -65.233704464032 -65.87818328887845, -78.30968113997952 -78.99830795099959" stroke="#000000" stroke-width="1" fill="none"></path></g><g transform="translate(1330 2072.608695652174) rotate(0 -40.22614412866534 -39.80323480404911)"><path d="M-50.00077717971017 -67.17848990699473 C-60.80605663406655 -68.97555417625112, -69.0670011012939 -73.76028682768225, -77.69229592205957 -77.19645373729989 M-50.662664735093315 -65.15267580682608 C-61.74240508944509 -71.15758743854175, -70.12756034949349 -75.11276524518965, -78.79515112666414 -79.12003520430997" stroke="#000000" stroke-width="1" fill="none"></path></g><g transform="translate(1330 2072.608695652174) rotate(0 -40.22614412866534 -39.80323480404911)"><path d="M-64.64870548155345 -52.806357189478575 C-70.71926945032544 -59.35740659308091, -74.16207753307124 -68.86955831306034, -77.69229592205957 -77.19645373729989 M-65.3105930369366 -50.78054308930993 C-71.15268105214697 -62.0914495229778, -74.18786396660857 -71.2958687924023, -78.79515112666414 -79.12003520430997" stroke="#000000" stroke-width="1" fill="none"></path></g></g><g><g transform="translate(1310 1772.608695652174) rotate(0 9.590529292840529 0.023361119084825077)"><path d="M-0.11621617712080479 -1.0710857983678579 C3.507816673939427 -1.1146656032651663, 17.524855849767725 -0.7499425288289785, 20.817426985129714 -0.3820008035749197 M-1.6363683994486928 0.9809902121499183 C1.982260409606 1.1188987578824166, 16.911786301943163 1.219914431758225, 20.29853068869561 0.9548740257695316" stroke="#000000" stroke-width="1" fill="none"></path></g><g transform="translate(1310 1772.608695652174) rotate(0 9.590529292840529 0.023361119084825077)"><path d="M10.10397723437856 5.306639660143344 C12.754095947377683 3.5161101483569004, 16.0917617526272 2.2553645735511174, 20.56922438852489 1.6104584849625825 M10.637737744297935 4.460213978302716 C13.390060695720955 3.5065268931387705, 15.63440400483595 2.271067257104338, 20.081616201158614 1.2756461274065076" stroke="#000000" stroke-width="1" fill="none"></path></g><g transform="translate(1310 1772.608695652174) rotate(0 9.590529292840529 0.023361119084825077)"><path d="M9.920826521101729 -1.5313108509696587 C12.604877869896464 -1.7983785191377843, 15.983344005066758 -1.5358396259563658, 20.56922438852489 1.6104584849625825 M10.454587031021104 -2.377736532810287 C13.260059434822576 -1.472721874712501, 15.554172662863124 -0.8500165248390978, 20.081616201158614 1.2756461274065076" stroke="#000000" stroke-width="1" fill="none"></path></g></g><g><g transform="translate(650.3820590451804 1774.077493954906) rotate(180.93798585679198 10.49508596630767 -0.23905102884248208)"><path d="M-0.3607893649488687 1.136564553156495 C2.6875637070586285 1.254370093718171, 15.582963631177943 0.5707739237695933, 19.1075454171747 0.32483243979513654 M1.6506574891135095 0.6876569982245564 C5.001374635112782 0.46167819578200575, 18.220400668593744 -1.6459929780289533, 21.350961297564208 -1.6272052780911328" stroke="#000000" stroke-width="1" fill="none"></path></g><g transform="translate(650.3820590451804 1774.077493954906) rotate(180.93798585679198 10.49508596630767 -0.23905102884248208)"><path d="M13.244555487002064 1.875652981816989 C15.914410743967142 1.73892688230936, 18.69392715907952 -0.43047727870445973, 21.05789263062179 -2.344827255532145 M11.881591325796027 2.232627405214321 C14.508618351986852 1.8334347533188748, 17.132518639995205 0.3707258390682835, 21.537601100560277 -1.337274854835123" stroke="#000000" stroke-width="1" fill="none"></path></g><g transform="translate(650.3820590451804 1774.077493954906) rotate(180.93798585679198 10.49508596630767 -0.23905102884248208)"><path d="M12.633039322189326 -4.937360988253607 C15.506317106417189 -2.564249203233614, 18.510944188886803 -2.2256540507928024, 21.05789263062179 -2.344827255532145 M11.27007516098329 -4.5803865648562745 C14.04230419839443 -3.159007746146127, 16.829450374321794 -2.802964223509981, 21.537601100560277 -1.337274854835123" stroke="#000000" stroke-width="1" fill="none"></path></g></g><g transform="translate(630 10) rotate(0 270 58.69565217391303)"><text x="0" y="81.39130434782608" font-family="Virgil, Segoe UI Emoji" font-size="93.91304347826083px" fill="#000000" text-anchor="start" style="white-space: pre;" direction="ltr">Detail view</text></g><g><g transform="translate(650 932.608695652174) rotate(169.31613474156856 -170.14797752028798 0.19968939273152841)"><path d="M-0.2270505242049694 0.8441461019217968 C-56.765942451606186 0.6585851840674878, -282.74578172092635 -0.29611750319600105, -339.4235141329467 -0.45071147158741953 M-1.805390778752044 0.24171886009164156 C-58.43522225685107 0.16310620856471364, -283.5009359933654 0.6919975958485157, -340.068904516371 0.8500902570504696" stroke="#000000" stroke-width="1" fill="none"></path></g><g transform="translate(650 932.608695652174) rotate(169.31613474156856 -170.14797752028798 0.19968939273152841)"><path d="M-310.49668476083707 -8.519411476949946 C-320.60099610274136 -7.0871972456569265, -327.9921004052964 -2.7564044554840237, -338.7314093197603 -0.9192741483729332 M-311.90532766194474 -9.12089084523429 C-319.6370882056049 -6.142626491331961, -325.82586156826585 -4.717000666793771, -340.11505135064016 1.2962532501388342" stroke="#000000" stroke-width="1" fill="none"></path></g><g transform="translate(650 932.608695652174) rotate(169.31613474156856 -170.14797752028798 0.19968939273152841)"><path d="M-310.4459192052901 12.001734330343806 C-320.6779759055144 7.602704916239224, -328.0835053990305 6.102350113897844, -338.7314093197603 -0.9192741483729332 M-311.8545621063978 11.400254962059462 C-319.7674878086307 9.23762963008489, -325.9689799375524 5.521902146972698, -340.11505135064016 1.2962532501388342" stroke="#000000" stroke-width="1" fill="none"></path></g></g><g transform="translate(10 1032.608695652174) rotate(0 189 88.5)"><text x="0" y="17.285714285714285" font-family="Virgil, Segoe UI Emoji" font-size="20px" fill="#000000" text-anchor="start" style="white-space: pre;" direction="ltr">Remove detail on list view.</text><text x="0" y="42.57142857142857" font-family="Virgil, Segoe UI Emoji" font-size="20px" fill="#000000" text-anchor="start" style="white-space: pre;" direction="ltr"></text><text x="0" y="67.85714285714286" font-family="Virgil, Segoe UI Emoji" font-size="20px" fill="#000000" text-anchor="start" style="white-space: pre;" direction="ltr">Show pills?</text><text x="0" y="93.14285714285714" font-family="Virgil, Segoe UI Emoji" font-size="20px" fill="#000000" text-anchor="start" style="white-space: pre;" direction="ltr"></text><text x="0" y="118.42857142857142" font-family="Virgil, Segoe UI Emoji" font-size="20px" fill="#000000" text-anchor="start" style="white-space: pre;" direction="ltr">Don't show slider. Only show on detail.</text><text x="0" y="143.71428571428572" font-family="Virgil, Segoe UI Emoji" font-size="20px" fill="#000000" text-anchor="start" style="white-space: pre;" direction="ltr"></text><text x="0" y="169" font-family="Virgil, Segoe UI Emoji" font-size="20px" fill="#000000" text-anchor="start" style="white-space: pre;" direction="ltr"></text></g></svg>